<svg xmlns="http://www.w3.org/2000/svg" xmlns:xlink="http://www.w3.org/1999/xlink" width="142.449" height="63.98" viewBox="0 0 142.449 63.98">
  <defs>
    <clipPath id="clip-path">
      <rect id="Rectangle_1069" data-name="Rectangle 1069" width="142.449" height="63.98" fill="none"/>
    </clipPath>
    <clipPath id="clip-path-3">
      <rect id="Rectangle_1057" data-name="Rectangle 1057" width="4.6" height="6.511" fill="none"/>
    </clipPath>
    <clipPath id="clip-path-4">
      <rect id="Rectangle_1056" data-name="Rectangle 1056" width="4.6" height="6.51" fill="none"/>
    </clipPath>
    <clipPath id="clip-path-5">
      <rect id="Rectangle_1062" data-name="Rectangle 1062" width="5.131" height="4.458" fill="none"/>
    </clipPath>
    <clipPath id="clip-path-6">
      <rect id="Rectangle_1061" data-name="Rectangle 1061" width="5.13" height="4.459" fill="none"/>
    </clipPath>
    <clipPath id="clip-path-7">
      <rect id="Rectangle_1065" data-name="Rectangle 1065" width="4.6" height="5.35" fill="none"/>
    </clipPath>
  </defs>
  <g id="Group_446" data-name="Group 446" transform="translate(0 -1)">
    <g id="Group_445" data-name="Group 445" transform="translate(0 1)" clip-path="url(#clip-path)">
      <g id="Group_444" data-name="Group 444">
        <g id="Group_443" data-name="Group 443" clip-path="url(#clip-path)">
          <path id="Path_295" data-name="Path 295" d="M133.885,12.092a2.132,2.132,0,0,1-1.312-.478l-5.816-5.55a2.952,2.952,0,0,0-2.021-.8H67.059V2.039A2.049,2.049,0,0,0,65.022,0H64.95a2.051,2.051,0,0,0-2.039,2.039V8.528H28.639A4.621,4.621,0,0,1,25,6.772,15.264,15.264,0,0,0,6.653,2.447,2.1,2.1,0,0,0,5.43,4.574,2.137,2.137,0,0,0,7.009,6.489l5.123,1.436a2.854,2.854,0,0,1,1.862,1.631l2.483,5.816a2.972,2.972,0,0,1-1.01,3.58l-5.213,3.724a2.7,2.7,0,0,1-2.288.408L2.752,21.63A2.159,2.159,0,0,0,.359,24.892a15.318,15.318,0,0,0,24.752.992A4.463,4.463,0,0,1,28.6,24.2H62.911v6.045a2.051,2.051,0,0,0,2.039,2.039h.088a2.051,2.051,0,0,0,2.039-2.039V26.63h57.481a3.192,3.192,0,0,0,2.075-.78l.018.016,5.8-5.265a2.21,2.21,0,0,1,1.241-.567l8.759-1.083V12.96ZM28.6,22.659a5.964,5.964,0,0,0-4.7,2.27,13.792,13.792,0,0,1-22.271-.888.624.624,0,0,1,0-.709.668.668,0,0,1,.514-.265.6.6,0,0,1,.179.018l5.211,1.454a4.162,4.162,0,0,0,3.582-.621l5.213-3.724a4.537,4.537,0,0,0,1.525-5.424L15.376,8.954a4.367,4.367,0,0,0-2.855-2.5L7.4,5.016a.616.616,0,0,1-.462-.567.572.572,0,0,1,.355-.6,13.77,13.77,0,0,1,9.876-.657,13.529,13.529,0,0,1,6.648,4.558,6.16,6.16,0,0,0,4.823,2.322H62.911V22.677H28.6ZM65.534,30.23a.526.526,0,0,1-.512.514H64.95a.515.515,0,0,1-.514-.514V2.039a.514.514,0,0,1,.514-.514h.088a.525.525,0,0,1,.514.514V30.23Zm1.525-5.161V6.79H78.5v9.486H80.02V6.79h4.166v9.574h1.525V6.79H89.79v9.4h1.525V6.79h4.166v9.4h1.525V6.79h4.221v9.4h1.525V6.79h4.166v9.4h1.525V6.79h4.148v9.4h1.525V6.79h4.166v9.4h1.525V6.79H124.7a1.468,1.468,0,0,1,1.472,1.471V23.422a1.657,1.657,0,0,1-1.649,1.647H67.059m73.829-7.5-7.411.922a3.678,3.678,0,0,0-2.075.958L127.714,22.8V9.006l3.777,3.582a3.792,3.792,0,0,0,2.218,1.029l7.162.709V17.57Z" transform="translate(0)" fill="#002b65"/>
          <path id="Path_296" data-name="Path 296" d="M40.34,35.455l9.571-12.189h4.6V35.455h2.6v4.459h-2.6v5.35h-4.6v-5.35H40.34Zm9.571,0V29.795l-4.459,5.661Z" transform="translate(32.452 18.716)" fill="#22c5cb"/>
          <g id="Group_432" data-name="Group 432" transform="translate(82.355 41.982)" opacity="0.7">
            <g id="Group_431" data-name="Group 431">
              <g id="Group_430" data-name="Group 430" clip-path="url(#clip-path-3)">
                <g id="Group_429" data-name="Group 429" transform="translate(0)">
                  <g id="Group_428" data-name="Group 428" clip-path="url(#clip-path-4)">
                    <rect id="Rectangle_1055" data-name="Rectangle 1055" width="4.6" height="6.51" fill="#90e2e5"/>
                  </g>
                </g>
              </g>
            </g>
          </g>
          <rect id="Rectangle_1058" data-name="Rectangle 1058" width="4.459" height="4.459" transform="translate(86.962 54.171)" fill="#e588a2"/>
          <rect id="Rectangle_1059" data-name="Rectangle 1059" width="4.459" height="4.459" transform="translate(77.904 54.171)" fill="#49c1e5"/>
          <g id="Group_437" data-name="Group 437" transform="translate(72.779 54.177)" opacity="0.7">
            <g id="Group_436" data-name="Group 436">
              <g id="Group_435" data-name="Group 435" clip-path="url(#clip-path-5)">
                <g id="Group_434" data-name="Group 434" transform="translate(0 -0.001)">
                  <g id="Group_433" data-name="Group 433" clip-path="url(#clip-path-6)">
                    <rect id="Rectangle_1060" data-name="Rectangle 1060" width="5.13" height="4.459" fill="#90e2e5"/>
                  </g>
                </g>
              </g>
            </g>
          </g>
          <g id="Group_442" data-name="Group 442" transform="translate(82.355 58.622)" opacity="0.7">
            <g id="Group_441" data-name="Group 441">
              <g id="Group_440" data-name="Group 440" clip-path="url(#clip-path-7)">
                <g id="Group_439" data-name="Group 439" transform="translate(0 0)">
                  <g id="Group_438" data-name="Group 438" clip-path="url(#clip-path-7)">
                    <rect id="Rectangle_1063" data-name="Rectangle 1063" width="4.6" height="5.35" fill="#90e2e5"/>
                  </g>
                </g>
              </g>
            </g>
          </g>
          <rect id="Rectangle_1066" data-name="Rectangle 1066" width="4.6" height="5.661" transform="translate(82.362 48.511)" fill="#ffe0e9"/>
          <rect id="Rectangle_1067" data-name="Rectangle 1067" width="4.6" height="4.459" transform="translate(82.362 54.171)" fill="#002b65"/>
          <path id="Path_297" data-name="Path 297" d="M8.211,23.728a8.086,8.086,0,0,1,5.816,2.192l-1.758,2.862a6.512,6.512,0,0,0-3.9-1.6A4.2,4.2,0,0,0,3.99,31.626,4.421,4.421,0,0,0,8.373,36.3a6.4,6.4,0,0,0,4.13-1.92l1.956,2.79a8.5,8.5,0,0,1-6.249,2.609A7.8,7.8,0,0,1,.058,31.716a7.9,7.9,0,0,1,8.153-7.988" transform="translate(0.047 19.088)" fill="#002b65"/>
          <path id="Path_298" data-name="Path 298" d="M9.091,26.375H12.7v1.884a6.749,6.749,0,0,1-.038.689H12.7a3.873,3.873,0,0,1,3.567-2.79,2.987,2.987,0,0,1,.433.036v3.7a3.568,3.568,0,0,0-.76-.074,2.842,2.842,0,0,0-2.9,1.958,5.057,5.057,0,0,0-.2,1.521v4.239H9.073V26.375Z" transform="translate(7.299 21.043)" fill="#002b65"/>
          <path id="Path_299" data-name="Path 299" d="M19.645,26.137c3.3,0,5.163,2.3,5.163,5.417,0,.363-.09,1.178-.09,1.178H17.653a2.49,2.49,0,0,0,2.607,1.992A5.838,5.838,0,0,0,23.34,33.6l1.395,2.625a7.582,7.582,0,0,1-4.782,1.631,5.8,5.8,0,0,1-6.142-5.87,5.6,5.6,0,0,1,5.834-5.852m1.395,4.439a1.521,1.521,0,0,0-1.485-1.611,1.84,1.84,0,0,0-1.812,1.611Z" transform="translate(11.11 21.026)" fill="#002b65"/>
          <path id="Path_300" data-name="Path 300" d="M27.08,30.6h.144v-.2c0-.942-.725-1.231-1.649-1.231a6.687,6.687,0,0,0-3.024,1.068l-1.3-2.645a8.5,8.5,0,0,1,4.692-1.449c3.152,0,5.036,1.721,5.036,4.565V37.6H27.533v-.671c0-.363.036-.687.036-.687h-.036a3.5,3.5,0,0,1-3.17,1.629,3.583,3.583,0,0,1-3.8-3.605C20.6,30.984,25.341,30.6,27.08,30.6M25.431,34.97A2.078,2.078,0,0,0,27.279,33V32.76h-.345c-1.195,0-2.571.345-2.571,1.287,0,.507.325.924,1.068.924" transform="translate(16.539 21.035)" fill="#002b65"/>
          <path id="Path_301" data-name="Path 301" d="M28.745,30.753H27.314V27.819h1.539V24.612h3.641v3.207h2.337v2.934H32.495v3.441c0,1.269,1.287,1.433,1.992,1.433.309,0,.507-.02.507-.02v3.261a6.383,6.383,0,0,1-1.014.074c-1.776,0-5.235-.471-5.235-4.239v-3.95" transform="translate(21.973 19.799)" fill="#002b65"/>
          <path id="Path_302" data-name="Path 302" d="M38.177,26.137c3.3,0,5.163,2.3,5.163,5.417,0,.363-.09,1.178-.09,1.178H36.185a2.49,2.49,0,0,0,2.607,1.992,5.838,5.838,0,0,0,3.08-1.122l1.395,2.625a7.581,7.581,0,0,1-4.782,1.631,5.8,5.8,0,0,1-6.142-5.87,5.577,5.577,0,0,1,5.834-5.852m1.377,4.439a1.521,1.521,0,0,0-1.485-1.611,1.84,1.84,0,0,0-1.812,1.611Z" transform="translate(26.018 21.026)" fill="#002b65"/>
          <path id="Path_303" data-name="Path 303" d="M60.414,23.728a8.086,8.086,0,0,1,5.816,2.192l-1.758,2.862a6.512,6.512,0,0,0-3.9-1.6,4.2,4.2,0,0,0-4.383,4.439A4.421,4.421,0,0,0,60.576,36.3a6.4,6.4,0,0,0,4.13-1.92l1.956,2.79a8.5,8.5,0,0,1-6.249,2.609,7.8,7.8,0,0,1-8.153-8.062,7.926,7.926,0,0,1,8.153-7.988" transform="translate(42.041 19.088)" fill="#002b65"/>
          <path id="Path_304" data-name="Path 304" d="M67.327,30.6h.144v-.2c0-.942-.725-1.231-1.649-1.231A6.687,6.687,0,0,0,62.8,30.242l-1.3-2.645a8.5,8.5,0,0,1,4.692-1.449c3.152,0,5.036,1.721,5.036,4.565V37.6H67.78v-.671c0-.363.036-.687.036-.687H67.78a3.5,3.5,0,0,1-3.17,1.629A3.585,3.585,0,0,1,60.8,34.263c.038-3.279,4.784-3.658,6.523-3.658M65.678,34.97A2.078,2.078,0,0,0,67.526,33V32.76h-.345c-1.195,0-2.571.345-2.571,1.287,0,.507.325.924,1.068.924" transform="translate(48.914 21.035)" fill="#002b65"/>
          <path id="Path_305" data-name="Path 305" d="M68.051,26.375h3.605v1.884c0,.363-.036.689-.036.689h.036a3.877,3.877,0,0,1,3.567-2.79,3.028,3.028,0,0,1,.435.036v3.7a3.568,3.568,0,0,0-.76-.074A2.845,2.845,0,0,0,72,31.773a5.12,5.12,0,0,0-.2,1.521v4.239H68.033V26.375Z" transform="translate(54.729 21.043)" fill="#002b65"/>
          <path id="Path_306" data-name="Path 306" d="M78.6,26.137c3.3,0,5.163,2.3,5.163,5.417,0,.363-.09,1.178-.09,1.178H76.613a2.49,2.49,0,0,0,2.607,1.992A5.838,5.838,0,0,0,82.3,33.6L83.7,36.228a7.581,7.581,0,0,1-4.782,1.631,5.8,5.8,0,0,1-6.142-5.87A5.577,5.577,0,0,1,78.6,26.137m1.377,4.439A1.521,1.521,0,0,0,78.5,28.965a1.84,1.84,0,0,0-1.812,1.611Z" transform="translate(58.541 21.026)" fill="#002b65"/>
        </g>
      </g>
    </g>
  </g>
</svg>
